<svg width="24" height="24" viewBox="0 0 24 24" fill="none" xmlns="http://www.w3.org/2000/svg">
<path d="M3 7.55566L11.5333 12.3048V21L3 16V7.55566Z" fill="#CACACA"/>
<path d="M12.0666 1.44445L21.1333 6.44446L12.0666 11.4444L2.99997 6.44446L12.0666 1.44445Z" fill="#CACACA"/>
<path fill-rule="evenodd" clip-rule="evenodd" d="M12.6001 12.3048L21.1334 7.55566V13.331C20.4608 13.116 19.744 13 19.0001 13C16.1451 13 13.6893 14.7092 12.6001 17.1602V12.3048Z" fill="#CACACA"/>
<path d="M17.31 22.719C17.6834 23.0937 18.2867 23.0937 18.6601 22.719L22.7199 18.6357C23.0934 18.261 23.0934 17.6557 22.7199 17.281C22.3465 16.9063 21.7433 16.9063 21.3698 17.281L17.9803 20.6821L16.6302 19.3275C16.2567 18.9528 15.6535 18.9528 15.2801 19.3275C14.9066 19.7022 14.9066 20.3074 15.2801 20.6821L17.31 22.719Z" fill="#CACACA"/>
</svg>
