<svg width="21" height="14" viewBox="0 0 21 14" fill="none" xmlns="http://www.w3.org/2000/svg">
<path d="M17.6667 2C17.6667 0.9 16.7667 0 15.6667 0H12.6667V2H15.6667V4.65L12.1867 9H8.66675V4H4.66675C2.45675 4 0.666748 5.79 0.666748 8V11H2.66675C2.66675 12.66 4.00675 14 5.66675 14C7.32675 14 8.66675 12.66 8.66675 11H13.1467L17.6667 5.35V2ZM5.66675 12C5.11675 12 4.66675 11.55 4.66675 11H6.66675C6.66675 11.55 6.21675 12 5.66675 12Z" fill="#CACACA"/>
<path d="M8.66675 1H3.66675V3H8.66675V1Z" fill="#CACACA"/>
<path d="M17.6667 8C16.0067 8 14.6667 9.34 14.6667 11C14.6667 12.66 16.0067 14 17.6667 14C19.3267 14 20.6667 12.66 20.6667 11C20.6667 9.34 19.3267 8 17.6667 8ZM17.6667 12C17.1167 12 16.6667 11.55 16.6667 11C16.6667 10.45 17.1167 10 17.6667 10C18.2167 10 18.6667 10.45 18.6667 11C18.6667 11.55 18.2167 12 17.6667 12Z" fill="#CACACA"/>
</svg>
